<svg width="40" height="119" viewBox="0 0 40 119" fill="none" xmlns="http://www.w3.org/2000/svg">
<g filter="url(#filter0_d_60_140)">
<rect x="4" width="32" height="32" rx="8" fill="white"/>
<rect x="4.5" y="0.5" width="31" height="31" rx="7.5" stroke="#F2F2F2"/>
</g>
<path d="M24.6653 15.1312H21.2021V11.6682C21.2021 10.3328 19.1311 10.3328 19.1311 11.6682V15.1312H15.668C14.3329 15.1312 14.3329 17.2022 15.668 17.2022H19.1311V20.6652C19.1311 22.0005 21.2021 22.0005 21.2021 20.6652V17.2022H24.6653C26.0005 17.2022 26.0005 15.1312 24.6653 15.1312Z" fill="#D3D3D3"/>
<g clip-path="url(#clip0_60_140)">
<path d="M14.6653 112.131H11.2021V108.668C11.2021 107.333 9.13114 107.333 9.13114 108.668V112.131H5.668C4.33294 112.131 4.33294 114.202 5.668 114.202H9.13114V117.665C9.13114 119 11.2021 119 11.2021 117.665V114.202H14.6653C16.0005 114.202 16.0005 112.131 14.6653 112.131Z" fill="#D3D3D3"/>
</g>
<defs>
<filter id="filter0_d_60_140" x="0" y="0" width="40" height="40" filterUnits="userSpaceOnUse" color-interpolation-filters="sRGB">
<feFlood flood-opacity="0" result="BackgroundImageFix"/>
<feColorMatrix in="SourceAlpha" type="matrix" values="0 0 0 0 0 0 0 0 0 0 0 0 0 0 0 0 0 0 127 0" result="hardAlpha"/>
<feOffset dy="4"/>
<feGaussianBlur stdDeviation="2"/>
<feComposite in2="hardAlpha" operator="out"/>
<feColorMatrix type="matrix" values="0 0 0 0 0 0 0 0 0 0 0 0 0 0 0 0 0 0 0.25 0"/>
<feBlend mode="normal" in2="BackgroundImageFix" result="effect1_dropShadow_60_140"/>
<feBlend mode="normal" in="SourceGraphic" in2="effect1_dropShadow_60_140" result="shape"/>
</filter>
<clipPath id="clip0_60_140">
<rect width="12" height="12" fill="white" transform="translate(4 107)"/>
</clipPath>
</defs>
</svg>
